<svg width="116" height="24" viewBox="0 0 116 24" fill="none" xmlns="http://www.w3.org/2000/svg"><g clip-path="url(#clip0_671_3555)"><path d="M11.135 1.67459H0V24H11.135V1.67459Z" fill="url(#paint0_linear_671_3555)"/><path d="M22.2849 1.67459L16.7092 7.25706L11.135 12.838V1.67459H22.2849Z" fill="#B450FF"/><path d="M33.4481 6.15005H36.305V8.20949C36.9995 6.89894 38.2343 6.15005 39.9914 6.15005H41.5675V8.87814H39.564C37.2399 8.87814 36.3317 10.107 36.3317 12.89V19.5215H33.4481V6.15005Z" fill="#B450FF"/><path d="M42.7429 12.8886C42.7429 8.95841 45.7601 5.88263 49.6854 5.88263C53.639 5.88263 56.5493 8.74444 56.5493 12.7014V13.8262H45.4929C45.8669 15.8841 47.4697 17.2437 49.7967 17.2437C51.6133 17.2437 53.0024 16.2808 53.6969 14.8366L56.0462 16.1471C54.8708 18.3403 52.7619 19.7846 49.7967 19.7846C45.5731 19.7875 42.7429 16.7652 42.7429 12.8886ZM45.6265 11.3908H53.6405C53.2131 9.45915 51.7439 8.39675 49.6869 8.39675C48.7759 8.38105 47.8849 8.66561 47.1512 9.20661C46.4176 9.7476 45.8818 10.5151 45.6265 11.3908Z" fill="#B450FF"/><path d="M57.6445 6.15007H59.9211V5.45468C59.9211 1.2838 61.2034 0 65.3959 0H65.6363V2.64785C63.0985 2.64785 62.8047 3.07578 62.8047 5.48143V6.15007H65.6363V8.71768H62.7987V19.5201H59.9211V8.71768H57.6505L57.6445 6.15007Z" fill="#B450FF"/><path d="M67.8208 6.15005H70.6777V8.20949C71.3722 6.89894 72.607 6.15005 74.3626 6.15005H75.9387V8.87814H73.9352C71.6126 8.87814 70.7044 10.107 70.7044 12.89V19.5215H67.8208V6.15005Z" fill="#B450FF"/><path d="M77.1143 12.8351C77.1143 8.55722 80.2932 5.88263 83.7926 5.88263C85.5557 5.88263 87.2372 6.65826 88.2255 7.88857V6.15009H91.0869V19.523H88.2241V17.6746C87.209 18.9852 85.5275 19.7875 83.7644 19.7875C80.3733 19.7875 77.1143 17.0862 77.1143 12.8351ZM88.3843 12.8083C88.3843 10.4309 86.5945 8.47698 84.1651 8.47698C81.7906 8.47698 79.9459 10.3745 79.9459 12.8083C79.9459 15.2422 81.7876 17.1664 84.1651 17.1664C86.5945 17.1664 88.3843 15.214 88.3843 12.8083Z" fill="#B450FF"/><path d="M93.3516 12.8351C93.3516 8.90492 96.4236 5.88263 100.327 5.88263C103.295 5.88263 105.641 7.56762 106.656 9.97327L104.092 11.0699C103.425 9.51859 102.063 8.55722 100.327 8.55722C97.9522 8.55722 96.1609 10.4547 96.1609 12.8351C96.1609 15.1872 97.976 17.1129 100.38 17.1129C102.197 17.1129 103.532 15.9896 104.145 14.4933L106.736 15.5884C105.668 18.0491 103.451 19.7875 100.327 19.7875C99.4101 19.7994 98.5003 19.628 97.6507 19.2832C96.8011 18.9384 96.0288 18.4272 95.3791 17.7797C94.7295 17.1321 94.2155 16.3612 93.8673 15.5121C93.5191 14.663 93.3438 13.7529 93.3516 12.8351Z" fill="#B450FF"/><path d="M108.014 6.15005H110.283V2.99552L113.168 1.41751V6.15005H115.998V8.71766H113.168V14.0386C113.168 16.4443 113.542 16.8187 115.998 16.8187V19.52H115.574C111.514 19.52 110.285 18.2362 110.285 14.0654V8.71617H108.014V6.15005Z" fill="#B450FF"/></g><defs><linearGradient id="paint0_linear_671_3555" x1="5.56826" y1="24" x2="5.56826" y2="1.67459" gradientUnits="userSpaceOnUse"><stop offset="0.15" stop-color="#B450FF"/><stop offset="0.21" stop-color="#B450FF" stop-opacity="0.93"/><stop offset="0.6" stop-color="#B450FF" stop-opacity="0.44"/><stop offset="0.88" stop-color="#B450FF" stop-opacity="0.12"/><stop offset="1" stop-color="#B450FF" stop-opacity="0"/></linearGradient><clipPath id="clip0_671_3555"><rect width="116" height="24" fill="white"/></clipPath></defs></svg>